<?xml version="1.0" encoding="utf-8"?>
<!-- Generator: Adobe Illustrator 21.0.2, SVG Export Plug-In . SVG Version: 6.00 Build 0)  -->
<svg version="1.1" id="Layer_1" xmlns="http://www.w3.org/2000/svg" xmlns:xlink="http://www.w3.org/1999/xlink" x="0px" y="0px"
	 viewBox="0 0 218.1 218.1" style="enable-background:new 0 0 218.1 218.1;" xml:space="preserve">
<g id="Layer_1_1_" style="fill:#000">
	<g id="G">
		<g>
			<path d="M127.3,107.3h-26.6l0.3,0.1c0,0-0.1,0.8-0.2,1.3h0.9c2.1,0,3.8,0.7,5.2,2.1c1.3,1.4,2,4.3,2,8.6l0.1,13.8
				c-0.4,3.1-2.5,5.6-6.3,7.6s-8.6,2.9-14.4,2.9c-4.7,0-9-1-12.9-3.1s-7.3-5-10.1-8.7c-2.8-3.7-5-8.2-6.6-13.4s-2.3-10.9-2.3-17.1
				s0.8-12,2.4-17.2c1.6-5.2,3.8-9.7,6.7-13.5s6.3-6.7,10.2-8.8c4-2.1,8.3-3.2,13.1-3.2c2.9,0,5.5,0.3,7.9,0.8s4.6,1.2,6.6,2.2
				c2,0.9,4,2.2,5.9,3.8c1.9,1.6,3.7,3.2,5.3,5c1.6,1.8,3,3.5,4.1,5.3s1.9,3.4,2.4,4.8c0.1,0.3,0.2,0.6,0.2,0.8
				c0.1,0.2,0.2,0.4,0.2,0.5c0.1,0.2,0.1,0.4,0.1,0.6h0.2c0.1,0,0.3,0.1,0.7,0.2V62l-0.7,0.3c0,0.2,0,0.4-0.1,0.7
				c-0.1,0.2-0.2,0.5-0.2,0.8c-0.1,0.3-0.2,0.6-0.2,1c-0.2,0.6-1.1,0.7-2.7,0.3s-3.6-1.3-6-2.7c-3-2-6.4-3.6-10.3-4.7
				S93.5,56,87.9,56c-6.3,0-12.1,1.1-17.5,3.3c-5.3,2.2-9.9,5.3-13.7,9.3s-6.8,8.8-9,14.3c-2.1,5.5-3.2,11.6-3.2,18.2
				s1,12.6,3.2,18.2c2.1,5.5,5.1,10.3,8.8,14.3c3.8,4,8.3,7.1,13.6,9.3c5.3,2.2,11,3.3,17.3,3.3c3.8,0,7.7-0.2,11.6-0.7
				s7.4-1.1,10.6-1.8c3.1-0.7,5.7-1.4,7.7-2.2c2-0.7,2.9-1.4,2.7-1.8v-20.6c0-4.4,0.5-7.3,1.6-8.7s2.5-2.1,4.2-2.1h1.5
				c0.1-0.2,0.1-0.4,0.2-0.7c0-0.3,0-0.3,0-0.4L127.3,107.3z"/>
		</g>
	</g>
	<g id="B">
	</g>
	<g id="line">
		<g id="Layer_8">
			<g>
				<g>
					<g>
						<path d="M105.2,106.9c-0.3,0-0.7,0-1,0h-1.5l-0.2,0.7c0,0.2,0,0.3-0.1,0.3c0,0.1-0.1,0.2-0.1,0.2v0.1h34.4
							c5.2,0,10-0.4,14.4-1.1s8.1-1.9,11.3-3.6s5.6-4.1,7.4-7c1.8-3,2.6-6.7,2.6-11.3c0-2.9-0.6-5.6-1.9-8.1c-1.3-2.5-3-4.8-5.2-6.7
							c-2.2-1.9-4.9-3.5-8.1-4.9c-3.2-1.3-6.7-2.2-10.5-2.7h-0.1c7-1.5,12.5-4.1,16.6-7.9s6.2-8.3,6.2-13.5c0-3-0.5-5.9-1.6-8.4
							c-1.1-2.6-3-4.8-5.7-6.7s-6.3-3.3-10.9-4.4c-4.6-1.1-10.4-1.6-17.5-1.6h-31.4v0.2c0,0.1,0,0.1,0.1,0.2c0,0.1,0.1,0.1,0.1,0.3
							l0.2,0.7h1.5c1.1,0,2.1,0.2,3,0.5s1.7,0.9,2.4,1.8c0.7,0.9,1.2,2.1,1.6,3.6s0.6,3.5,0.6,5.9v32.9h11v-2.3h10.6
							c4,0,7.6,0.5,10.9,1.6c3.3,1,6.1,2.5,8.5,4.4s4.2,4.1,5.5,6.7s2,5.5,2,8.6c0,4.1-0.7,7.6-1.9,10.3c-1.3,2.7-3.1,4.9-5.4,6.5
							c-2.3,1.6-5,2.7-8.2,3.4c-3.2,0.6-6.7,0.9-10.5,0.9h-7.9l2.7,0.5 M143.7,61.1c-3,1-6.3,1.5-9.9,1.5h-11.2V22.5l7.1,0.1
							c5.6,0,10.3,0.5,14,1.5s6.6,2.4,8.8,4.2s3.7,3.9,4.6,6.4c0.8,2.5,1.3,5.2,1.3,8.2c0,2.9-0.6,5.5-1.8,7.9s-2.9,4.5-5.1,6.2
							C149.3,58.8,146.7,60.1,143.7,61.1z"/>
					</g>
				</g>
				<g>
					<polygon points="129.1,107.3 100.3,108.7 99.8,106.6 129.3,106.6 					"/>
				</g>
			</g>
		</g>
	</g>
	<g id="Layer_10">
		<polygon points="122.8,82.7 121.7,82.4 122.1,21.9 122.8,21.9 		"/>
	</g>
</g>
<g id="Layer_5_copy_2" style="fill:#000">
	<g>
		<g>
			<path d="M30.5,187.9c-0.2,0.8-0.4,1.4-0.4,1.9c-0.1,0.5-0.1,0.9,0,1.2s0.2,0.5,0.4,0.6c0.2,0.1,0.4,0.2,0.7,0.2h0.4l0,0l0,0l0,0
				c0,0,0,0,0,0.1l0,0l0,0h-2.4h-0.5h-1.9l0,0v-0.1v-0.1l0,0h0.4c0.2,0,0.4-0.1,0.6-0.2c0.2-0.1,0.4-0.3,0.7-0.6s0.5-0.7,0.7-1.2
				s0.5-1.2,0.8-2l3.3-9.7l-0.1-0.2c0.3,0,0.5-0.1,0.8-0.3c0.2-0.2,0.4-0.4,0.5-0.6h0.2l0.3,0.9l3.7,11.2c0.2,0.5,0.4,1,0.5,1.3
				c0.2,0.4,0.3,0.6,0.5,0.8c0.1,0.2,0.3,0.3,0.4,0.4c0.1,0.1,0.2,0.1,0.4,0.1H41l0,0v0.1v0.1l0,0h-1.3H38h-2l0,0l0,0c0,0,0,0,0-0.1
				v-0.1h0.4c0.2,0,0.4,0,0.5-0.1s0.2-0.3,0.3-0.5s0-0.6-0.1-1.1s-0.3-1.1-0.5-1.8l0,0l-0.5-1.5h-5.3L30.5,187.9z M36.1,186.3
				l-2.5-7.7l-2.5,7.7H36.1z"/>
			<path d="M56.7,178.2c0.3,0.2,0.5,0.3,0.7,0.3s0.3-0.1,0.3-0.2c0-0.1,0-0.1,0-0.2c0-0.1,0-0.1,0-0.1c0-0.1,0-0.1,0-0.1l0,0l0,0
				l0,0l0,0l0,0l0,0v1.7v1.5l0,0l0,0h-0.1l0,0V181v-0.1v-0.1c-0.1-0.3-0.2-0.6-0.4-0.9s-0.5-0.6-0.8-0.9c-0.3-0.3-0.6-0.5-1-0.7
				s-0.7-0.4-1.1-0.4h0.2c-0.4-0.1-0.8-0.2-1.2-0.2c-0.7,0-1.3,0.3-1.7,0.8s-0.7,1.2-0.7,2c0,0.6,0.3,1.2,1,1.8s1.6,1.2,2.8,1.6
				c1.3,0.5,2.2,1.1,2.9,1.9c0.7,0.8,1,1.7,1,2.5c0,0.6-0.1,1.1-0.3,1.6s-0.5,0.9-0.9,1.3s-0.9,0.6-1.4,0.8s-1.1,0.3-1.8,0.3
				c-0.6,0-1.2-0.1-1.8-0.3s-1.1-0.5-1.6-0.8c-0.4-0.3-0.7-0.5-1-0.5c-0.3-0.1-0.4,0-0.4,0.1s0,0.1,0,0.2c0,0.1,0,0.1,0,0.2
				c0,0.1,0,0.1,0,0.1s0,0-0.1,0h-0.1v-2.2v-1.5h0.1l0,0l0,0l0,0c0.1,0.3,0.2,0.6,0.4,0.9c0.2,0.3,0.4,0.6,0.6,1
				c0.2,0.3,0.5,0.6,0.7,0.9c0.3,0.3,0.5,0.5,0.8,0.7c0.4,0.2,0.7,0.3,1.1,0.5c0.4,0.1,0.8,0.2,1.2,0.2s0.8-0.1,1.2-0.2
				c0.4-0.1,0.7-0.3,0.9-0.6c0.3-0.3,0.5-0.6,0.6-0.9c0.1-0.4,0.2-0.8,0.2-1.2c0-0.5-0.3-1.1-0.9-1.6c-0.6-0.6-1.5-1.1-2.6-1.5
				c-0.7-0.3-1.3-0.6-1.8-0.9c-0.5-0.4-0.9-0.7-1.3-1.1c-0.3-0.4-0.6-0.8-0.8-1.3c-0.2-0.4-0.3-0.9-0.3-1.3c0-0.6,0.1-1.1,0.3-1.5
				c0.2-0.5,0.5-0.9,0.8-1.2s0.8-0.6,1.2-0.8s1-0.3,1.5-0.3c0.6,0,1.2,0.1,1.8,0.2C55.8,177.6,56.2,177.8,56.7,178.2L56.7,178.2z
				 M54.5,177.7L54.5,177.7L54.5,177.7L54.5,177.7z"/>
			<path d="M74.8,178.2c0.3,0.2,0.5,0.3,0.7,0.3s0.3-0.1,0.3-0.2c0-0.1,0-0.1,0-0.2c0-0.1,0-0.1,0-0.1c0-0.1,0-0.1,0-0.1l0,0l0,0
				l0,0l0,0l0,0l0,0v1.7v1.5l0,0l0,0h-0.1l0,0V181v-0.1v-0.1c-0.1-0.3-0.2-0.6-0.4-0.9s-0.5-0.6-0.8-0.9c-0.3-0.3-0.6-0.5-1-0.7
				s-0.7-0.4-1.1-0.4h0.2c-0.4-0.1-0.8-0.2-1.2-0.2c-0.7,0-1.3,0.3-1.7,0.8s-0.7,1.2-0.7,2c0,0.6,0.3,1.2,1,1.8s1.6,1.2,2.8,1.6
				c1.3,0.5,2.2,1.1,2.9,1.9c0.7,0.8,1,1.7,1,2.5c0,0.6-0.1,1.1-0.3,1.6c-0.2,0.5-0.5,0.9-0.9,1.3s-0.9,0.6-1.4,0.8
				s-1.1,0.3-1.8,0.3c-0.6,0-1.2-0.1-1.8-0.3c-0.6-0.2-1.1-0.5-1.6-0.8c-0.4-0.3-0.7-0.5-1-0.5c-0.3-0.1-0.4,0-0.4,0.1s0,0.1,0,0.2
				c0,0.1,0,0.1,0,0.2c0,0.1,0,0.1,0,0.1s0,0-0.1,0h-0.1v-2.2v-1.5h0.1l0,0l0,0l0,0c0.1,0.3,0.2,0.6,0.4,0.9c0.2,0.3,0.4,0.6,0.6,1
				c0.2,0.3,0.5,0.6,0.7,0.9c0.3,0.3,0.5,0.5,0.8,0.7c0.4,0.2,0.7,0.3,1.1,0.5c0.4,0.1,0.8,0.2,1.2,0.2c0.4,0,0.8-0.1,1.2-0.2
				c0.4-0.1,0.7-0.3,0.9-0.6c0.3-0.3,0.5-0.6,0.6-0.9c0.1-0.4,0.2-0.8,0.2-1.2c0-0.5-0.3-1.1-0.9-1.6c-0.6-0.6-1.5-1.1-2.6-1.5
				c-0.7-0.3-1.3-0.6-1.8-0.9c-0.5-0.4-0.9-0.7-1.3-1.1c-0.3-0.4-0.6-0.8-0.8-1.3c-0.2-0.4-0.3-0.9-0.3-1.3c0-0.6,0.1-1.1,0.3-1.5
				c0.2-0.5,0.5-0.9,0.8-1.2s0.8-0.6,1.2-0.8s1-0.3,1.5-0.3c0.6,0,1.2,0.1,1.8,0.2C73.8,177.6,74.3,177.8,74.8,178.2L74.8,178.2z
				 M72.5,177.7L72.5,177.7L72.5,177.7L72.5,177.7z"/>
			<path d="M85.3,191.9c0-0.1,0-0.1,0-0.1h0.3c0.4,0,0.7-0.1,0.9-0.4s0.4-0.7,0.4-1.4v-10.6c0-0.7-0.1-1.2-0.4-1.4s-0.5-0.4-0.9-0.4
				h-0.3l-0.1-0.2h5l0,0l0,0l0,0l0,0l0,0l0,0h-0.3c-0.4,0-0.7,0.1-0.9,0.4s-0.4,0.7-0.4,1.4V190c0,0.7,0.1,1.2,0.4,1.4
				s0.5,0.4,0.9,0.4h0.3l0,0l0,0l0,0c0,0,0,0,0,0.1l0,0l0,0H85.3C85.2,192,85.3,192,85.3,191.9z"/>
			<path d="M106.5,178.2c0.3,0.2,0.5,0.3,0.7,0.3s0.3-0.1,0.3-0.2c0-0.1,0-0.1,0-0.2c0-0.1,0-0.1,0-0.1c0-0.1,0-0.1,0-0.1l0,0l0,0
				l0,0l0,0l0,0l0,0v1.7v1.5l0,0l0,0h-0.1l0,0V181v-0.1v-0.1c-0.1-0.3-0.2-0.6-0.4-0.9s-0.5-0.6-0.8-0.9c-0.3-0.3-0.6-0.5-1-0.7
				s-0.7-0.4-1.1-0.4h0.2c-0.4-0.1-0.8-0.2-1.2-0.2c-0.7,0-1.3,0.3-1.7,0.8s-0.7,1.2-0.7,2c0,0.6,0.3,1.2,1,1.8s1.6,1.2,2.8,1.6
				c1.3,0.5,2.2,1.1,2.9,1.9c0.7,0.8,1,1.7,1,2.5c0,0.6-0.1,1.1-0.3,1.6c-0.2,0.5-0.5,0.9-0.9,1.3s-0.9,0.6-1.4,0.8
				s-1.1,0.3-1.8,0.3c-0.6,0-1.2-0.1-1.8-0.3c-0.6-0.2-1.1-0.5-1.6-0.8c-0.4-0.3-0.7-0.5-1-0.5c-0.3-0.1-0.4,0-0.4,0.1s0,0.1,0,0.2
				c0,0.1,0,0.1,0,0.2c0,0.1,0,0.1,0,0.1s0,0-0.1,0H99v-2.2v-1.5h0.1l0,0l0,0l0,0c0.1,0.3,0.2,0.6,0.4,0.9c0.2,0.3,0.4,0.6,0.6,1
				c0.2,0.3,0.5,0.6,0.7,0.9c0.3,0.3,0.5,0.5,0.8,0.7c0.4,0.2,0.7,0.3,1.1,0.5c0.4,0.1,0.8,0.2,1.2,0.2c0.4,0,0.8-0.1,1.2-0.2
				c0.4-0.1,0.7-0.3,0.9-0.6c0.3-0.3,0.5-0.6,0.6-0.9c0.1-0.4,0.2-0.8,0.2-1.2c0-0.5-0.3-1.1-0.9-1.6c-0.6-0.6-1.5-1.1-2.6-1.5
				c-0.7-0.3-1.3-0.6-1.8-0.9c-0.5-0.4-0.9-0.7-1.3-1.1c-0.3-0.4-0.6-0.8-0.8-1.3c-0.2-0.4-0.3-0.9-0.3-1.3c0-0.6,0.1-1.1,0.3-1.5
				c0.2-0.5,0.5-0.9,0.8-1.2s0.8-0.6,1.2-0.8s1-0.3,1.5-0.3c0.6,0,1.2,0.1,1.8,0.2C105.5,177.6,106,177.8,106.5,178.2L106.5,178.2z
				 M104.2,177.7L104.2,177.7L104.2,177.7L104.2,177.7z"/>
			<path d="M119.8,192c0,0,0,0,0-0.1s0-0.1,0-0.1h0.3c0.4,0,0.7-0.1,0.9-0.4s0.4-0.7,0.4-1.4v-12.2h-2.5c-0.6,0-1.1,0-1.5,0.1
				s-0.8,0.2-1,0.3s-0.5,0.2-0.6,0.4s-0.2,0.3-0.3,0.5l-0.1,0.2l0,0h-0.1h-0.1l0,0c0.1-0.3,0.2-0.5,0.3-0.8s0.2-0.5,0.3-0.8l0,0
				v-0.4h0.2l0.3-0.8h0.1h0.1l0,0l-0.1,0.2c0,0.1,0,0.2,0,0.2s0.2,0.1,0.4,0.2s0.5,0.1,0.9,0.1s0.9,0,1.5,0h2.4h1.8h2.4
				c0.6,0,1.1,0,1.5,0s0.7-0.1,0.9-0.1s0.3-0.1,0.4-0.2s0.1-0.1,0-0.2l-0.1-0.2l0,0h0.1h0.1c0.1,0.1,0.1,0.3,0.1,0.4
				s0.1,0.3,0.1,0.4h0.2v0.4c0.1,0.3,0.2,0.5,0.3,0.8s0.2,0.5,0.3,0.8l0,0h-0.1h-0.1l0,0l-0.1-0.2c-0.1-0.2-0.2-0.4-0.3-0.5
				s-0.3-0.3-0.6-0.4s-0.6-0.2-1-0.3s-0.9-0.1-1.5-0.1h-2.5V190c0,0.7,0.1,1.2,0.4,1.4s0.5,0.4,0.9,0.4h0.3l0,0l0,0l0,0
				c0,0,0,0,0,0.1s0,0,0,0l0,0L119.8,192L119.8,192z"/>
			<path d="M139.5,187.9c-0.2,0.8-0.4,1.4-0.4,1.9s-0.1,0.9,0,1.2s0.2,0.5,0.4,0.6s0.4,0.2,0.7,0.2h0.4l0,0l0,0l0,0c0,0,0,0,0,0.1
				s0,0,0,0l0,0h-2.4h-0.5h-1.9l0,0v-0.1v-0.1l0,0h0.4c0.2,0,0.4-0.1,0.6-0.2s0.4-0.3,0.7-0.6s0.5-0.7,0.7-1.2s0.5-1.2,0.8-2
				l3.3-9.7l-0.1-0.2c0.3,0,0.5-0.1,0.8-0.3s0.4-0.4,0.5-0.6h0.2l0.3,0.9l3.7,11.2c0.2,0.5,0.4,1,0.5,1.3s0.3,0.6,0.5,0.8
				s0.3,0.3,0.4,0.4s0.2,0.1,0.4,0.1h0.5l0,0v0.1v0.1l0,0h-1.3h-1.9h-2l0,0l0,0c0,0,0,0,0-0.1v-0.1h0.4c0.2,0,0.4,0,0.5-0.1
				s0.2-0.3,0.3-0.5s0-0.6-0.1-1.1s-0.3-1.1-0.5-1.8l0,0l-0.5-1.5h-5.3L139.5,187.9z M145.1,186.3l-2.5-7.7l-2.5,7.7H145.1z"/>
			<path d="M157.8,178.6c-0.3-0.4-0.6-0.7-0.8-0.8s-0.3-0.2-0.4-0.2H156l0,0l0,0l0,0l0,0l0,0l0,0h0.8h1.4h0.4h0.4l8.4,11.1l0.4,0.5
				v-8.8c0-0.5-0.1-0.9-0.2-1.3s-0.2-0.6-0.3-0.8s-0.3-0.3-0.5-0.4s-0.4-0.1-0.6-0.1H166l-0.1-0.2h1.9h0.6h1.8c0,0,0,0,0,0.1
				s0,0.1,0,0.1h-0.3c-0.2,0-0.4,0-0.6,0.1s-0.3,0.2-0.5,0.4s-0.2,0.4-0.3,0.7s-0.1,0.7-0.2,1.2l-0.1,12h-0.4l-1.9-2.5l-7.4-9.7v8.4
				c0,0.7,0,1.3,0.1,1.8s0.2,0.8,0.3,1.1s0.3,0.4,0.4,0.5s0.3,0.1,0.5,0.1h0.4v0.1v0.1l0,0h-1.8h-0.5h-1.8c0,0,0,0,0-0.1
				s0-0.1,0-0.1h0.4c0.2,0,0.4-0.1,0.5-0.2s0.3-0.3,0.4-0.6s0.2-0.7,0.3-1.2s0.1-1.2,0.1-2v-8.7L157.8,178.6L157.8,178.6z"/>
			<path d="M181.5,192c0,0,0,0,0-0.1s0-0.1,0-0.1h0.3c0.4,0,0.7-0.1,0.9-0.4s0.4-0.7,0.4-1.4v-12.2h-2.5c-0.6,0-1.1,0-1.5,0.1
				s-0.8,0.2-1,0.3s-0.5,0.2-0.6,0.4s-0.2,0.3-0.3,0.5l-0.1,0.2l0,0H177h-0.1l0,0c0.1-0.3,0.2-0.5,0.3-0.8s0.2-0.5,0.3-0.8l0,0v-0.4
				h0.2l0.3-0.8h0.1h0.1l0,0l-0.1,0.2c0,0.1,0,0.2,0,0.2s0.2,0.1,0.4,0.2s0.5,0.1,0.9,0.1s0.9,0,1.5,0h2.4h1.8h2.4
				c0.6,0,1.1,0,1.5,0s0.7-0.1,0.9-0.1s0.3-0.1,0.4-0.2s0.1-0.1,0-0.2l-0.1-0.2l0,0h0.1h0.1c0.1,0.1,0.1,0.3,0.1,0.4
				s0.1,0.3,0.1,0.4h0.2v0.4c0.1,0.3,0.2,0.5,0.3,0.8s0.2,0.5,0.3,0.8l0,0h-0.1h-0.1l0,0l-0.1-0.2c-0.1-0.2-0.2-0.4-0.3-0.5
				s-0.3-0.3-0.6-0.4s-0.6-0.2-1-0.3s-0.9-0.1-1.5-0.1H185V190c0,0.7,0.1,1.2,0.4,1.4s0.5,0.4,0.9,0.4h0.3l0,0l0,0l0,0
				c0,0,0,0,0,0.1s0,0,0,0l0,0L181.5,192L181.5,192z"/>
		</g>
		<g>
			<rect x="26.8" y="159.9" width="164.6" height="3"/>
		</g>
	</g>
</g>
</svg>
