<svg xmlns="http://www.w3.org/2000/svg" viewBox="0 0 64 64" fill="none">
  <rect width="64" height="64" rx="14" fill="#1F1B2E"/>
  <svg x="10" y="10" width="44" height="44" viewBox="44 54 88 92">
    <path fill="#FFFFFF" d="M127.3,107.3h-26.6l0.3,0.1c0,0-0.1,0.8-0.2,1.3h0.9c2.1,0,3.8,0.7,5.2,2.1c1.3,1.4,2,4.3,2,8.6l0.1,13.8c-0.4,3.1-2.5,5.6-6.3,7.6s-8.6,2.9-14.4,2.9c-4.7,0-9-1-12.9-3.1s-7.3-5-10.1-8.7c-2.8-3.7-5-8.2-6.6-13.4s-2.3-10.9-2.3-17.1s0.8-12,2.4-17.2c1.6-5.2,3.8-9.7,6.7-13.5s6.3-6.7,10.2-8.8c4-2.1,8.3-3.2,13.1-3.2c2.9,0,5.5,0.3,7.9,0.8s4.6,1.2,6.6,2.2c2,0.9,4,2.2,5.9,3.8c1.9,1.6,3.7,3.2,5.3,5c1.6,1.8,3,3.5,4.1,5.3s1.9,3.4,2.4,4.8c0.1,0.3,0.2,0.6,0.2,0.8c0.1,0.2,0.2,0.4,0.2,0.5c0.1,0.2,0.1,0.4,0.1,0.6h0.2c0.1,0,0.3,0.1,0.7,0.2V62l-0.7,0.3c0,0.2,0,0.4-0.1,0.7c-0.1,0.2-0.2,0.5-0.2,0.8c-0.1,0.3-0.2,0.6-0.2,1c-0.2,0.6-1.1,0.7-2.7,0.3s-3.6-1.3-6-2.7c-3-2-6.4-3.6-10.3-4.7S93.5,56,87.9,56c-6.3,0-12.1,1.1-17.5,3.3c-5.3,2.2-9.9,5.3-13.7,9.3s-6.8,8.8-9,14.3c-2.1,5.5-3.2,11.6-3.2,18.2s1,12.6,3.2,18.2c2.1,5.5,5.1,10.3,8.8,14.3c3.8,4,8.3,7.1,13.6,9.3c5.3,2.2,11,3.3,17.3,3.3c3.8,0,7.7-0.2,11.6-0.7s7.4-1.1,10.6-1.8c3.1-0.7,5.7-1.4,7.7-2.2c2-0.7,2.9-1.4,2.7-1.8v-20.6c0-4.4,0.5-7.3,1.6-8.7s2.5-2.1,4.2-2.1h1.5c0.1-0.2,0.1-0.4,0.2-0.7c0-0.3,0-0.3,0-0.4L127.3,107.3z"/>
  </svg>
</svg>
